- 
http://www.Speed.Cd      fast  and The Hottest Private Tracker on the net

   signup is open now

Please Seed back to make the speed Faster!!!

------------------nfo--------------------------
-[align=center]   
                       [/align]
[size=3][color=#009999]



   The Twilight Saga Breaking Dawn Part 1 2011 TS XVID - Xtreme Encode






[/color][/size]


[size=3]
[color=#CC9933]General


Complete name                    : The Twilight Saga Breaking Dawn Part 1 2011 TS XVID  - Xtreme Encode.avi
Format                           : AVI
Format/Info                      : Audio Video Interleave
File size                        : 1.53 GiB
Duration                         : 1h 46mn
Overall bit rate                 : 2 045 Kbps[/color][/size]




[size=3][color=#669900]
Video


ID                               : 0
Format                           : MPEG-4 Visual
Format profile                   : Advanced Simple@L5
Format settings, BVOP            : 2
Format settings, QPel            : No
Format settings, GMC             : No warppoints
Format settings, Matrix          : Default (H.263)
Muxing mode                      : Packed bitstream
Codec ID                         : XVID
Codec ID/Hint                    : XviD
Duration                         : 1h 46mn
Bit rate                         : 1 907 Kbps
Width                            : 720 pixels
Height                           : 304 pixels
Display aspect ratio             : 2.35:1
Frame rate                       : 25.000 fps
Color space                      : YUV
Chroma subsampling               : 4:2:0
Bit depth                        : 8 bits
Scan type                        : Progressive
Compression mode                 : Lossy
Bits/(Pixel*Frame)               : 0.349
Stream size                      : 1.43 GiB (93%)[/color][/size]







[size=3][color=#009900]Audio

ID                               : 1
Format                           : MPEG Audio
Format version                   : Version 1
Format profile                   : Layer 3
Codec ID                         : 55
Codec ID/Hint                    : MP3
Duration                         : 1h 46mn
Bit rate mode                    : Constant
Bit rate                         : 128 Kbps
Channel(s)                       : 2 channels
Sampling rate                    : 48.0 KHz
Compression mode                 : Lossy
Stream size                      : 97.9 MiB (6%)
Alignment                        : Split accross interleaves
Interleave, duration             : 40 ms (1.00 video frame)
Interleave, preload duration     : 500 ms[/color][/size]





[size=3][color=#6699FF]
SOURCE
Video : (New Source) - FYA
Audio : (New Source) - FYA



JUST A LITTLE MESS WITH THIS ADDES BIT OF CONTRAS 
RESIZED BIT TWEAKED BIT SHARPEN in 
SAT HUE and few othere things :)[/color][/size]


JUST TO LET U ALL KNOW THIS IS A LITTLE OUT OF 
SYNC NOT TO MUCH HOPE YA STILL ENJOY :)


[size=3][color=#0099CC]PLOT
The Quileute's close in on expecting parents Edward and Bella, whose unborn child poses a threat to the Wolf Pack and the towns people of Forks. 
 


 [/color][/size]


[size=3][color=#CC6600]Genres: Adventure | Drama | Fantasy | Romance 


Director: Bill Condon

Writers: Melissa Rosenberg (screenplay), Stephenie Meyer (novel)

Stars: Kristen Stewart, Robert Pattinson and Taylor Lautner  [/color][/size]


[size=3][color=#0033FF]IMDB: http://www.imdb.com/title/tt1324999/[/color][/size]



[size=3][color=#996600]HOPE U ALL LIKE THIS IF SO PLS REP :)[/color][/size]


[size=3][color=#CC0000]
SCREENS:




[/color][/size]


[size=2][b][font=Times New Roman][color=#3366CC]
      GREETS:

IMAGiNE / ELEKTRI4KA / FLAWL3SS  
ViSiON / CRYS / BMB / MiSTERE
AMB / FYA / Jamie111 / VISUALiSE  
ILLUMINATI / Rx / REFiLL / BHRG
TO MY FRIENDS  AND ALL OTHER GROUPS  :)[/color][/font][/b][/size]